<svg width="100" height="100" viewBox="0 0 100 100" fill="none" xmlns="http://www.w3.org/2000/svg">
<g clip-path="url(#clip0_113_74)">
<rect width="100" height="100" rx="15" fill="#141414"/>
<path d="M48.759 123.125C45.723 123.125 42.786 121.871 39.948 119.363C37.176 116.855 34.833 113.225 32.919 108.473C31.071 103.721 29.982 97.979 29.652 91.247C27.606 91.445 25.725 91.544 24.009 91.544C20.181 91.544 17.376 91.049 15.594 90.059C13.878 89.069 13.02 87.782 13.02 86.198C13.02 84.614 13.779 82.865 15.297 80.951C16.815 79.037 18.927 77.123 21.633 75.209C24.339 73.229 27.507 71.447 31.137 69.863C32.391 63.131 34.404 55.871 37.176 48.083C40.014 40.229 43.809 31.913 48.561 23.135C49.023 22.277 49.716 21.848 50.64 21.848C51.234 21.848 51.762 22.046 52.224 22.442C52.686 22.838 52.917 23.366 52.917 24.026C52.917 24.356 52.818 24.785 52.62 25.313C48.396 33.827 44.865 41.648 42.027 48.776C39.255 55.838 37.077 62.306 35.493 68.18C38.463 67.058 41.631 66.134 44.997 65.408C48.363 64.682 51.795 64.253 55.293 64.121C56.217 64.121 56.679 64.253 56.679 64.517C56.679 64.781 56.349 65.045 55.689 65.309C55.095 65.507 54.072 65.639 52.62 65.705C49.386 65.903 46.284 66.365 43.314 67.091C40.41 67.751 37.671 68.576 35.097 69.566C34.107 73.394 33.348 76.958 32.82 80.258C32.292 83.492 31.962 86.495 31.83 89.267C38.628 87.815 44.799 85.703 50.343 82.931C55.953 80.093 60.903 76.826 65.193 73.13C69.483 69.434 73.08 65.606 75.984 61.646C77.832 59.138 79.152 56.927 79.944 55.013C80.802 53.033 81.231 51.317 81.231 49.865C81.231 47.753 80.571 46.103 79.251 44.915C77.931 43.661 76.182 42.77 74.004 42.242C71.826 41.648 69.45 41.351 66.876 41.351C64.17 41.351 61.431 41.615 58.659 42.143C55.887 42.605 53.379 43.265 51.135 44.123C50.607 44.255 50.244 44.321 50.046 44.321C49.188 44.321 48.759 44.024 48.759 43.43C48.759 42.836 49.122 42.374 49.848 42.044C57.966 37.424 63.741 33.233 67.173 29.471C70.605 25.709 72.321 22.541 72.321 19.967C72.321 17.723 71.265 16.007 69.153 14.819C67.107 13.565 64.401 12.938 61.035 12.938C58.395 12.938 55.425 13.367 52.125 14.225C48.825 15.083 45.426 16.469 41.928 18.383C39.024 19.967 36.384 21.848 34.008 24.026C31.698 26.138 29.718 28.349 28.068 30.659C26.484 32.903 25.296 35.048 24.504 37.094C23.712 39.074 23.415 40.757 23.613 42.143C23.613 42.275 23.613 42.44 23.613 42.638C23.679 42.77 23.712 42.902 23.712 43.034C23.712 44.684 23.217 45.509 22.227 45.509C21.765 45.509 21.27 45.179 20.742 44.519C20.28 43.859 20.049 42.869 20.049 41.549C20.049 39.569 20.643 37.457 21.831 35.213C23.085 32.969 24.735 30.725 26.781 28.481C28.893 26.171 31.236 24.026 33.81 22.046C36.384 20 39.057 18.251 41.829 16.799C45.393 14.885 48.891 13.466 52.323 12.542C55.821 11.618 59.022 11.156 61.926 11.156C65.952 11.156 69.219 11.948 71.727 13.532C74.235 15.116 75.489 17.327 75.489 20.165C75.489 22.805 74.202 25.874 71.628 29.372C69.054 32.87 64.731 36.731 58.659 40.955C60.705 40.625 62.619 40.394 64.401 40.262C66.183 40.064 67.833 39.965 69.351 39.965C75.027 39.965 79.119 40.922 81.627 42.836C84.201 44.684 85.488 47.093 85.488 50.063C85.488 52.241 84.861 54.617 83.607 57.191C82.419 59.699 80.736 62.306 78.558 65.012C75.39 68.906 71.397 72.668 66.579 76.298C61.827 79.928 56.481 83.063 50.541 85.703C44.667 88.343 38.397 90.125 31.731 91.049C31.599 96.923 32.127 101.774 33.315 105.602C34.569 109.43 36.153 112.4 38.067 114.512C39.981 116.69 41.895 118.208 43.809 119.066C45.723 119.99 47.307 120.452 48.561 120.452C49.485 120.452 50.112 120.287 50.442 119.957C50.706 119.627 51.102 119.462 51.63 119.462C52.158 119.462 52.653 119.66 53.115 120.056C53.577 120.452 53.808 120.881 53.808 121.343C53.808 121.739 53.577 122.036 53.115 122.234C51.663 122.828 50.211 123.125 48.759 123.125ZM24.405 90.257C25.131 90.257 25.923 90.191 26.781 90.059C27.639 89.993 28.563 89.894 29.553 89.762C29.487 86.99 29.553 84.086 29.751 81.05C29.949 78.014 30.312 74.846 30.84 71.546C26.616 73.724 23.283 76.166 20.841 78.872C18.399 81.512 17.178 83.855 17.178 85.901C17.178 87.155 17.772 88.178 18.96 88.97C20.148 89.828 21.963 90.257 24.405 90.257Z" fill="white"/>
</g>
<defs>
<clipPath id="clip0_113_74">
<rect width="100" height="100" rx="15" fill="white"/>
</clipPath>
</defs>
</svg>
